<mxfile host="app.diagrams.net" modified="2020-07-07T12:05:31.401Z" agent="5.0 (Macintosh; Intel Mac OS X 10_15_5) AppleWebKit/537.36 (KHTML, like Gecko) Chrome/83.0.4103.106 Safari/537.36" etag="0UjWI0Sr4C5AVfpOLF8p" version="13.3.9" type="github">
  <diagram id="cSqME-KJp_qO3RB6uy0k" name="Page-1">
    <mxGraphModel dx="1351" dy="2090" grid="1" gridSize="10" guides="1" tooltips="1" connect="1" arrows="1" fold="1" page="1" pageScale="1" pageWidth="1654" pageHeight="1169" background="none" math="0" shadow="0">
      <root>
        <mxCell id="0" />
        <mxCell id="1" parent="0" />
        <mxCell id="pmTDvWezVxPva1f3BbkI-3" value="AWS Cloud" style="points=[[0,0],[0.25,0],[0.5,0],[0.75,0],[1,0],[1,0.25],[1,0.5],[1,0.75],[1,1],[0.75,1],[0.5,1],[0.25,1],[0,1],[0,0.75],[0,0.5],[0,0.25]];outlineConnect=0;gradientColor=none;html=1;whiteSpace=wrap;fontSize=12;fontStyle=0;shape=mxgraph.aws4.group;grIcon=mxgraph.aws4.group_aws_cloud_alt;strokeColor=#232F3E;fillColor=none;verticalAlign=top;align=left;spacingLeft=30;fontColor=#232F3E;dashed=0;" parent="1" vertex="1">
          <mxGeometry x="440" y="115" width="1190" height="645" as="geometry" />
        </mxCell>
        <mxCell id="pmTDvWezVxPva1f3BbkI-33" style="edgeStyle=orthogonalEdgeStyle;rounded=0;orthogonalLoop=1;jettySize=auto;html=1;" parent="1" source="pmTDvWezVxPva1f3BbkI-4" target="pmTDvWezVxPva1f3BbkI-32" edge="1">
          <mxGeometry relative="1" as="geometry" />
        </mxCell>
        <mxCell id="pmTDvWezVxPva1f3BbkI-4" value="SQS Uploads" style="outlineConnect=0;fontColor=#232F3E;gradientColor=#F34482;gradientDirection=north;fillColor=#BC1356;strokeColor=#ffffff;dashed=0;verticalLabelPosition=bottom;verticalAlign=top;align=center;html=1;fontSize=12;fontStyle=0;aspect=fixed;shape=mxgraph.aws4.resourceIcon;resIcon=mxgraph.aws4.sqs;" parent="1" vertex="1">
          <mxGeometry x="850" y="450" width="78" height="78" as="geometry" />
        </mxCell>
        <mxCell id="pmTDvWezVxPva1f3BbkI-7" style="edgeStyle=orthogonalEdgeStyle;rounded=0;orthogonalLoop=1;jettySize=auto;html=1;" parent="1" source="pmTDvWezVxPva1f3BbkI-5" target="pmTDvWezVxPva1f3BbkI-6" edge="1">
          <mxGeometry relative="1" as="geometry" />
        </mxCell>
        <mxCell id="pmTDvWezVxPva1f3BbkI-12" style="edgeStyle=orthogonalEdgeStyle;rounded=0;orthogonalLoop=1;jettySize=auto;html=1;" parent="1" source="pmTDvWezVxPva1f3BbkI-5" target="pmTDvWezVxPva1f3BbkI-11" edge="1">
          <mxGeometry relative="1" as="geometry" />
        </mxCell>
        <mxCell id="pmTDvWezVxPva1f3BbkI-5" value="" style="outlineConnect=0;fontColor=#232F3E;gradientColor=#F34482;gradientDirection=north;fillColor=#BC1356;strokeColor=#ffffff;dashed=0;verticalLabelPosition=bottom;verticalAlign=top;align=center;html=1;fontSize=12;fontStyle=0;aspect=fixed;shape=mxgraph.aws4.resourceIcon;resIcon=mxgraph.aws4.sns;" parent="1" vertex="1">
          <mxGeometry x="470" y="210" width="78" height="78" as="geometry" />
        </mxCell>
        <mxCell id="pmTDvWezVxPva1f3BbkI-6" value="" style="outlineConnect=0;fontColor=#232F3E;gradientColor=none;fillColor=#BC1356;strokeColor=none;dashed=0;verticalLabelPosition=bottom;verticalAlign=top;align=center;html=1;fontSize=12;fontStyle=0;aspect=fixed;pointerEvents=1;shape=mxgraph.aws4.email_notification;" parent="1" vertex="1">
          <mxGeometry x="220" y="172" width="78" height="78" as="geometry" />
        </mxCell>
        <mxCell id="pmTDvWezVxPva1f3BbkI-8" value="" style="outlineConnect=0;fontColor=#232F3E;gradientColor=none;fillColor=#BC1356;strokeColor=none;dashed=0;verticalLabelPosition=bottom;verticalAlign=top;align=center;html=1;fontSize=12;fontStyle=0;aspect=fixed;pointerEvents=1;shape=mxgraph.aws4.http_notification;" parent="1" vertex="1">
          <mxGeometry x="220" y="405.5" width="78" height="78" as="geometry" />
        </mxCell>
        <mxCell id="pmTDvWezVxPva1f3BbkI-17" value="Upload premissions" style="edgeStyle=orthogonalEdgeStyle;rounded=0;orthogonalLoop=1;jettySize=auto;html=1;" parent="1" source="pmTDvWezVxPva1f3BbkI-9" target="pmTDvWezVxPva1f3BbkI-16" edge="1">
          <mxGeometry relative="1" as="geometry" />
        </mxCell>
        <mxCell id="pmTDvWezVxPva1f3BbkI-26" value="Image &lt;br&gt;Created" style="edgeStyle=orthogonalEdgeStyle;rounded=0;orthogonalLoop=1;jettySize=auto;html=1;" parent="1" source="pmTDvWezVxPva1f3BbkI-9" target="pmTDvWezVxPva1f3BbkI-4" edge="1">
          <mxGeometry relative="1" as="geometry" />
        </mxCell>
        <mxCell id="pmTDvWezVxPva1f3BbkI-30" value="Image Removed" style="edgeStyle=orthogonalEdgeStyle;rounded=0;orthogonalLoop=1;jettySize=auto;html=1;" parent="1" source="pmTDvWezVxPva1f3BbkI-9" target="pmTDvWezVxPva1f3BbkI-28" edge="1">
          <mxGeometry relative="1" as="geometry" />
        </mxCell>
        <mxCell id="pmTDvWezVxPva1f3BbkI-9" value="S3" style="outlineConnect=0;fontColor=#232F3E;gradientColor=#60A337;gradientDirection=north;fillColor=#277116;strokeColor=#ffffff;dashed=0;verticalLabelPosition=bottom;verticalAlign=top;align=center;html=1;fontSize=12;fontStyle=0;aspect=fixed;shape=mxgraph.aws4.resourceIcon;resIcon=mxgraph.aws4.s3;" parent="1" vertex="1">
          <mxGeometry x="590" y="450" width="78" height="78" as="geometry" />
        </mxCell>
        <mxCell id="pmTDvWezVxPva1f3BbkI-10" value="users" style="outlineConnect=0;gradientColor=none;fontColor=#545B64;strokeColor=none;fillColor=#879196;dashed=0;verticalLabelPosition=bottom;verticalAlign=top;align=center;html=1;fontSize=12;fontStyle=0;aspect=fixed;shape=mxgraph.aws4.illustration_users;pointerEvents=1" parent="1" vertex="1">
          <mxGeometry x="30" y="188" width="100" height="100" as="geometry" />
        </mxCell>
        <mxCell id="pmTDvWezVxPva1f3BbkI-11" value="notification" style="outlineConnect=0;gradientColor=none;fontColor=#545B64;strokeColor=none;fillColor=#879196;dashed=0;verticalLabelPosition=bottom;verticalAlign=top;align=center;html=1;fontSize=12;fontStyle=0;aspect=fixed;shape=mxgraph.aws4.illustration_notification;pointerEvents=1" parent="1" vertex="1">
          <mxGeometry x="220" y="269" width="100" height="81" as="geometry" />
        </mxCell>
        <mxCell id="pmTDvWezVxPva1f3BbkI-14" style="edgeStyle=orthogonalEdgeStyle;rounded=0;orthogonalLoop=1;jettySize=auto;html=1;" parent="1" source="pmTDvWezVxPva1f3BbkI-13" target="pmTDvWezVxPva1f3BbkI-8" edge="1">
          <mxGeometry relative="1" as="geometry" />
        </mxCell>
        <mxCell id="pmTDvWezVxPva1f3BbkI-13" value="" style="pointerEvents=1;shadow=0;dashed=0;html=1;strokeColor=none;fillColor=#434445;aspect=fixed;labelPosition=center;verticalLabelPosition=bottom;verticalAlign=top;align=center;outlineConnect=0;shape=mxgraph.vvd.web_browser;" parent="1" vertex="1">
          <mxGeometry x="32.82" y="404.5" width="97.18" height="69" as="geometry" />
        </mxCell>
        <mxCell id="pmTDvWezVxPva1f3BbkI-16" value="" style="outlineConnect=0;dashed=0;verticalLabelPosition=bottom;verticalAlign=top;align=center;html=1;shape=mxgraph.aws3.cognito;fillColor=#AD688B;gradientColor=none;" parent="1" vertex="1">
          <mxGeometry x="590" y="288" width="76.5" height="93" as="geometry" />
        </mxCell>
        <mxCell id="pmTDvWezVxPva1f3BbkI-24" value="Login" style="edgeStyle=orthogonalEdgeStyle;rounded=0;orthogonalLoop=1;jettySize=auto;html=1;entryX=0;entryY=0.5;entryDx=0;entryDy=0;entryPerimeter=0;" parent="1" source="pmTDvWezVxPva1f3BbkI-18" target="pmTDvWezVxPva1f3BbkI-16" edge="1">
          <mxGeometry relative="1" as="geometry" />
        </mxCell>
        <mxCell id="pmTDvWezVxPva1f3BbkI-25" value="Uploads" style="edgeStyle=orthogonalEdgeStyle;rounded=0;orthogonalLoop=1;jettySize=auto;html=1;" parent="1" source="pmTDvWezVxPva1f3BbkI-18" target="pmTDvWezVxPva1f3BbkI-9" edge="1">
          <mxGeometry relative="1" as="geometry" />
        </mxCell>
        <mxCell id="pmTDvWezVxPva1f3BbkI-38" value="Search image Meta" style="edgeStyle=orthogonalEdgeStyle;rounded=0;orthogonalLoop=1;jettySize=auto;html=1;entryX=0;entryY=0.5;entryDx=0;entryDy=0;entryPerimeter=0;" parent="1" source="pmTDvWezVxPva1f3BbkI-18" target="pmTDvWezVxPva1f3BbkI-37" edge="1">
          <mxGeometry relative="1" as="geometry">
            <Array as="points">
              <mxPoint x="480" y="445" />
              <mxPoint x="480" y="600" />
              <mxPoint x="742" y="600" />
              <mxPoint x="742" y="661" />
            </Array>
          </mxGeometry>
        </mxCell>
        <mxCell id="pmTDvWezVxPva1f3BbkI-18" value="" style="outlineConnect=0;dashed=0;verticalLabelPosition=bottom;verticalAlign=top;align=center;html=1;shape=mxgraph.aws3.api_gateway;fillColor=#D9A741;gradientColor=none;" parent="1" vertex="1">
          <mxGeometry x="393.5" y="398" width="76.5" height="93" as="geometry" />
        </mxCell>
        <mxCell id="pmTDvWezVxPva1f3BbkI-40" style="edgeStyle=orthogonalEdgeStyle;rounded=0;orthogonalLoop=1;jettySize=auto;html=1;" parent="1" source="pmTDvWezVxPva1f3BbkI-27" target="pmTDvWezVxPva1f3BbkI-39" edge="1">
          <mxGeometry relative="1" as="geometry" />
        </mxCell>
        <mxCell id="pmTDvWezVxPva1f3BbkI-27" value="SQS&lt;br&gt;Image Processing" style="outlineConnect=0;fontColor=#232F3E;gradientColor=#F34482;gradientDirection=north;fillColor=#BC1356;strokeColor=#ffffff;dashed=0;verticalLabelPosition=bottom;verticalAlign=top;align=center;html=1;fontSize=12;fontStyle=0;aspect=fixed;shape=mxgraph.aws4.resourceIcon;resIcon=mxgraph.aws4.sqs;" parent="1" vertex="1">
          <mxGeometry x="1160" y="449.5" width="78" height="78" as="geometry" />
        </mxCell>
        <mxCell id="pmTDvWezVxPva1f3BbkI-28" value="SQS Removals" style="outlineConnect=0;fontColor=#232F3E;gradientColor=#F34482;gradientDirection=north;fillColor=#BC1356;strokeColor=#ffffff;dashed=0;verticalLabelPosition=bottom;verticalAlign=top;align=center;html=1;fontSize=12;fontStyle=0;aspect=fixed;shape=mxgraph.aws4.resourceIcon;resIcon=mxgraph.aws4.sqs;" parent="1" vertex="1">
          <mxGeometry x="690" y="303" width="78" height="78" as="geometry" />
        </mxCell>
        <mxCell id="pmTDvWezVxPva1f3BbkI-34" style="edgeStyle=orthogonalEdgeStyle;rounded=0;orthogonalLoop=1;jettySize=auto;html=1;" parent="1" source="pmTDvWezVxPva1f3BbkI-32" target="pmTDvWezVxPva1f3BbkI-27" edge="1">
          <mxGeometry relative="1" as="geometry" />
        </mxCell>
        <mxCell id="pmTDvWezVxPva1f3BbkI-36" value="" style="edgeStyle=orthogonalEdgeStyle;rounded=0;orthogonalLoop=1;jettySize=auto;html=1;" parent="1" source="pmTDvWezVxPva1f3BbkI-32" edge="1">
          <mxGeometry relative="1" as="geometry">
            <mxPoint x="1048.25" y="615" as="targetPoint" />
          </mxGeometry>
        </mxCell>
        <mxCell id="pmTDvWezVxPva1f3BbkI-32" value="" style="outlineConnect=0;dashed=0;verticalLabelPosition=bottom;verticalAlign=top;align=center;html=1;shape=mxgraph.aws3.rekognition;fillColor=#2E73B8;gradientColor=none;" parent="1" vertex="1">
          <mxGeometry x="1010" y="442" width="76.5" height="93" as="geometry" />
        </mxCell>
        <mxCell id="pmTDvWezVxPva1f3BbkI-37" value="ES Indicies" style="outlineConnect=0;dashed=0;verticalLabelPosition=bottom;verticalAlign=top;align=center;html=1;shape=mxgraph.aws3.elasticsearch_service;fillColor=#F58534;gradientColor=none;" parent="1" vertex="1">
          <mxGeometry x="1014" y="620" width="67.5" height="81" as="geometry" />
        </mxCell>
        <mxCell id="pmTDvWezVxPva1f3BbkI-41" value="Image Published" style="edgeStyle=orthogonalEdgeStyle;rounded=0;orthogonalLoop=1;jettySize=auto;html=1;entryX=1;entryY=0.5;entryDx=0;entryDy=0;entryPerimeter=0;" parent="1" source="pmTDvWezVxPva1f3BbkI-39" target="pmTDvWezVxPva1f3BbkI-37" edge="1">
          <mxGeometry relative="1" as="geometry">
            <Array as="points">
              <mxPoint x="1365" y="610" />
              <mxPoint x="1206" y="610" />
              <mxPoint x="1206" y="661" />
            </Array>
          </mxGeometry>
        </mxCell>
        <mxCell id="pmTDvWezVxPva1f3BbkI-43" style="edgeStyle=orthogonalEdgeStyle;rounded=0;orthogonalLoop=1;jettySize=auto;html=1;" parent="1" source="pmTDvWezVxPva1f3BbkI-39" target="pmTDvWezVxPva1f3BbkI-42" edge="1">
          <mxGeometry relative="1" as="geometry" />
        </mxCell>
        <mxCell id="pmTDvWezVxPva1f3BbkI-39" value="Meta analisys&lt;br&gt;Filtering | Ranking" style="outlineConnect=0;dashed=0;verticalLabelPosition=bottom;verticalAlign=top;align=center;html=1;shape=mxgraph.aws3.lambda_function;fillColor=#F58534;gradientColor=none;" parent="1" vertex="1">
          <mxGeometry x="1330" y="452.5" width="69" height="72" as="geometry" />
        </mxCell>
        <mxCell id="pmTDvWezVxPva1f3BbkI-49" style="edgeStyle=orthogonalEdgeStyle;rounded=0;orthogonalLoop=1;jettySize=auto;html=1;" parent="1" source="pmTDvWezVxPva1f3BbkI-42" target="pmTDvWezVxPva1f3BbkI-47" edge="1">
          <mxGeometry relative="1" as="geometry" />
        </mxCell>
        <mxCell id="pmTDvWezVxPva1f3BbkI-42" value="SQS Image Published" style="outlineConnect=0;fontColor=#232F3E;gradientColor=#F34482;gradientDirection=north;fillColor=#BC1356;strokeColor=#ffffff;dashed=0;verticalLabelPosition=bottom;verticalAlign=top;align=center;html=1;fontSize=12;fontStyle=0;aspect=fixed;shape=mxgraph.aws4.resourceIcon;resIcon=mxgraph.aws4.sqs;" parent="1" vertex="1">
          <mxGeometry x="1474.5" y="450" width="78" height="78" as="geometry" />
        </mxCell>
        <mxCell id="pmTDvWezVxPva1f3BbkI-48" style="edgeStyle=orthogonalEdgeStyle;rounded=0;orthogonalLoop=1;jettySize=auto;html=1;" parent="1" source="pmTDvWezVxPva1f3BbkI-47" target="pmTDvWezVxPva1f3BbkI-5" edge="1">
          <mxGeometry relative="1" as="geometry" />
        </mxCell>
        <mxCell id="pmTDvWezVxPva1f3BbkI-47" value="Push notifications" style="outlineConnect=0;dashed=0;verticalLabelPosition=bottom;verticalAlign=top;align=center;html=1;shape=mxgraph.aws3.lambda_function;fillColor=#F58534;gradientColor=none;" parent="1" vertex="1">
          <mxGeometry x="1479" y="213" width="69" height="72" as="geometry" />
        </mxCell>
        <mxCell id="51ZNGNf6STjrIYnD0YBC-1" value="Text" style="text;html=1;align=center;verticalAlign=middle;resizable=0;points=[];autosize=1;" vertex="1" parent="1">
          <mxGeometry x="1125" y="-75" width="40" height="20" as="geometry" />
        </mxCell>
        <mxCell id="51ZNGNf6STjrIYnD0YBC-2" value="" style="outlineConnect=0;fontColor=#232F3E;gradientColor=#F54749;gradientDirection=north;fillColor=#C7131F;strokeColor=#ffffff;dashed=0;verticalLabelPosition=bottom;verticalAlign=top;align=center;html=1;fontSize=12;fontStyle=0;aspect=fixed;shape=mxgraph.aws4.resourceIcon;resIcon=mxgraph.aws4.waf;" vertex="1" parent="1">
          <mxGeometry x="393.5" y="500" width="78" height="78" as="geometry" />
        </mxCell>
      </root>
    </mxGraphModel>
  </diagram>
</mxfile>
